# xmcd
#
# Track frame offsets:
#	150
#	19935
#	40927
#	67119
#	88078
#	101860
#	123501
#	143682
#	160838
#
# Disc length: 2416 seconds
#
# Revision: 11
# Processed by: cddbd v1.5.2PL0 Copyright (c) Steve Scherf et al.
# Submitted via: Jack! The Knife 20 Magnifico
#
DISCID=7c096e09
DTITLE=Stormwitch - Walpurgis Night
DYEAR=1984
DGENRE=Heavy Metal
TTITLE0=Cave Of Steenfoll
TTITLE1=Priest Of Evil
TTITLE2=Skull And Crossbones
TTITLE3=Werewolves On The Hunt
TTITLE4=Walpurgis Night
TTITLE5=Flour In The Wind
TTITLE6=Warlord
TTITLE7=Excalibur
TTITLE8=Thunderland
EXTD=Andy Mück
EXTT0=
EXTT1=
EXTT2=
EXTT3=
EXTT4=
EXTT5=
EXTT6=
EXTT7=
EXTT8=
PLAYORDER=
